<svg width="28" height="28" viewBox="0 0 28 28" fill="none" xmlns="http://www.w3.org/2000/svg">
<path d="M27.1087 10.5769C27.0309 10.4602 26.9531 10.3435 26.8364 10.3046C26.9531 10.149 27.0309 9.91565 26.992 9.72116C26.9531 8.8654 26.5641 7.11498 24.6581 4.93669C22.7132 2.75839 21.0017 2.17492 20.1848 2.01932C20.0292 1.98042 19.9125 2.01932 19.7958 2.01932C19.7569 1.82483 19.6402 1.63034 19.4846 1.51365C18.8234 0.969072 17.2674 0.113312 14.3501 0.113312C11.4327 0.113312 9.87679 1.00797 9.17662 1.51365C8.82654 1.78593 8.70984 2.21381 8.90433 2.6028L9.5267 4.04203L13.4165 13.4554C13.4165 13.4943 13.4554 13.5332 13.4943 13.5721C13.4165 13.5332 13.2998 13.5332 13.1831 13.5332L2.95291 14.4278L1.39698 14.5445C0.969102 14.5834 0.619018 14.8946 0.541221 15.3225C0.385629 16.1783 0.34673 17.9676 1.74707 20.496C3.1085 23.0632 4.66443 23.9968 5.44239 24.3469C5.55909 24.3858 5.67578 24.4247 5.83138 24.4247C5.83138 24.4247 5.83138 24.4247 5.87027 24.4247C5.87027 24.6192 5.94807 24.8137 6.06476 25.0082C6.60934 25.6694 7.89298 26.9142 10.7325 27.5754C11.7439 27.8088 12.5997 27.8866 13.3387 27.8866C14.6613 27.8866 15.5559 27.6143 16.0616 27.3809C16.1783 27.342 16.295 27.2253 16.3728 27.1475C16.5284 27.2642 16.7229 27.3809 16.9174 27.3809C16.9952 27.3809 17.073 27.3809 17.1507 27.3809C18.0843 27.3809 19.7569 27.1087 21.8963 25.5916C24.2691 23.919 25.0471 22.2853 25.3194 21.4684C25.3583 21.3517 25.3583 21.1961 25.3583 21.0794C25.5528 21.0405 25.7472 20.9627 25.9028 20.8071C26.5252 20.1848 27.5755 18.7455 27.8866 15.8671C28.2756 12.9886 27.5755 11.316 27.1087 10.5769ZM19.8347 2.87508C19.8736 2.79729 19.9514 2.75839 19.9903 2.79729C20.7294 2.95288 22.2853 3.45856 24.0357 5.44236C25.7861 7.42617 26.1362 8.9821 26.1751 9.76006C26.1751 9.83786 26.1362 9.87675 26.0584 9.91565L25.4361 10.149C25.3583 9.37108 24.9693 7.89295 23.3745 6.06473C21.7796 4.23652 20.3015 3.69194 19.5235 3.53635L19.8347 2.87508ZM25.475 15.5948C25.2027 17.9676 24.308 19.0956 23.919 19.4846C23.8801 19.5235 23.8412 19.5235 23.8023 19.4846L19.2513 16.8395L15.2447 14.3111L19.7958 12.7941L24.7359 11.3938C24.7748 11.3938 24.8137 11.3938 24.8526 11.4327C25.1638 11.8995 25.7472 13.222 25.475 15.5948ZM19.2901 4.27542C19.7958 4.35321 21.1962 4.78109 22.8299 6.60931C24.4247 8.39862 24.6581 9.83786 24.697 10.3435C24.697 10.3824 24.6581 10.4213 24.6192 10.4213L19.6013 12.0551L15.0502 13.3387L16.9563 8.9432L19.2124 4.31432C19.2124 4.27542 19.2512 4.27542 19.2901 4.27542ZM9.5656 2.33051C9.5267 2.25271 9.5656 2.17492 9.6045 2.13602C10.2269 1.66924 11.6272 0.891275 14.2723 0.891275C16.9174 0.891275 18.3177 1.66924 18.9012 2.13602C18.9401 2.17492 18.979 2.25271 18.9401 2.33051L18.6678 2.95288C18.0065 2.4861 16.684 1.78593 14.2723 1.78593C11.8606 1.78593 10.4603 2.4861 9.83789 2.95288L9.5656 2.33051ZM10.188 3.76974C10.188 3.73084 10.188 3.69194 10.2269 3.65305C10.6547 3.34186 11.8995 2.5639 14.3112 2.5639C16.6451 2.5639 17.8509 3.22517 18.3566 3.65305C18.3955 3.69194 18.3955 3.73084 18.3955 3.76974L16.295 8.63201L14.1167 13.1442L10.188 3.76974ZM14.1945 14.0389C14.1945 14.0778 14.1945 14.0778 14.1945 14.1167C14.1945 14.1167 14.1556 14.1167 14.1167 14.1556C14.0778 14.1556 14.0778 14.1556 14.0389 14.1167C14.0389 14.0778 14.0389 14.0389 14 14L13.9611 13.9611C14 13.9611 14.0778 14 14.1167 14C14.1556 14.0389 14.1556 14.0389 14.1945 14.0389ZM13.7277 15.2058L14.7002 19.9125L15.517 24.9692C15.517 25.0081 15.517 25.047 15.4781 25.0859C15.0113 25.3193 13.611 25.7472 11.2771 25.2026C8.94323 24.6581 7.93188 23.6467 7.58179 23.2188C7.5429 23.1799 7.5429 23.141 7.58179 23.1021L10.7325 18.8622L13.7277 15.2058ZM5.94807 23.6078C5.90917 23.6467 5.83138 23.6856 5.75358 23.6467C5.209 23.4133 3.73087 22.5576 2.40833 20.107C1.16359 17.7731 1.16359 16.1783 1.31919 15.4392C1.31919 15.3614 1.39698 15.3225 1.47478 15.3225L2.17495 15.2836C2.05825 16.0616 2.09715 17.6175 3.2252 19.718C4.39214 21.8574 5.63688 22.7132 6.37595 23.0632L5.94807 23.6078ZM3.88647 19.3679C2.75842 17.2674 2.83621 15.8282 2.91401 15.2836C2.91401 15.2447 2.95291 15.2058 2.99181 15.2058L13.1831 14.35C13.1442 14.3889 13.1053 14.3889 13.1053 14.4278L10.1491 18.3955L6.92052 22.402C6.88163 22.4409 6.84273 22.4409 6.80383 22.4409C6.29815 22.2075 5.05341 21.4684 3.88647 19.3679ZM15.7115 26.6808C15.1669 26.9531 13.5721 27.4587 10.8492 26.8364C8.24306 26.214 7.07612 25.1248 6.60934 24.5414C6.57044 24.5025 6.57044 24.4247 6.60934 24.3469L7.03722 23.8023C7.5429 24.4247 8.70984 25.3971 11.0437 25.9417C11.9384 26.1362 12.6775 26.214 13.3387 26.214C14.4279 26.214 15.1669 25.9806 15.6337 25.7861L15.7504 26.4863C15.8282 26.603 15.7893 26.6808 15.7115 26.6808ZM16.5284 24.9304L15.4781 19.7569L14.7002 15.0891L18.8623 17.5008L23.18 20.2626C23.2189 20.3015 23.2189 20.3404 23.2189 20.3793C23.0633 20.8849 22.4798 22.2075 20.496 23.6078C18.5122 24.9693 17.1119 25.0859 16.5673 25.047C16.5673 25.0082 16.5284 25.0081 16.5284 24.9304ZM21.4684 24.9692C19.2901 26.4863 17.6953 26.6419 16.9563 26.603C16.8785 26.603 16.8396 26.5641 16.8007 26.4863L16.684 25.7861C16.7229 25.7861 16.7229 25.7861 16.7618 25.7861C17.5786 25.7861 19.0568 25.5527 20.9628 24.2302C22.9466 22.8299 23.6856 21.4684 23.919 20.7293L24.5025 21.0794C24.5803 21.1183 24.5803 21.1961 24.5803 21.2739C24.4247 21.8574 23.7634 23.3744 21.4684 24.9692ZM27.1476 15.7893C26.8364 18.4344 25.9028 19.718 25.3583 20.2626C25.3194 20.3015 25.2416 20.3404 25.1638 20.3015L24.5803 19.9514C25.1249 19.3679 25.9806 18.0843 26.2529 15.7115C26.5252 13.2998 25.9806 11.8606 25.5917 11.1604L26.2529 10.9659C26.3307 10.927 26.4085 10.9659 26.4474 11.0437C26.8364 11.6661 27.4588 13.1442 27.1476 15.7893Z" fill="#A4ACAD"/>
</svg>
