<svg width="34" height="30" viewBox="0 0 34 30" fill="none" xmlns="http://www.w3.org/2000/svg">
<path d="M33.0039 10.0195H29.4983L21.8286 0.43245C21.485 0.00300032 20.8582 -0.0667929 20.4286 0.276926C19.999 0.620578 19.9293 1.24739 20.273 1.67697L26.9471 10.0195H7.05294L13.727 1.67697C14.0707 1.24739 14.001 0.620512 13.5715 0.276926C13.1419 -0.0667929 12.5151 0.00293392 12.1715 0.43245L4.50175 10.0195H0.996094C0.445984 10.0195 0 10.4655 0 11.0156V15C0 15.5501 0.445984 15.9961 0.996094 15.9961H2.23696L6.01495 29.219C6.13707 29.6466 6.52793 29.9414 6.97266 29.9414H27.0273C27.4721 29.9414 27.8629 29.6466 27.9851 29.219L31.763 15.9961H33.0039C33.554 15.9961 34 15.5501 34 15V11.0156C34 10.4655 33.554 10.0195 33.0039 10.0195ZM26.276 27.9492H7.72398L4.30884 15.9961H29.6912L26.276 27.9492ZM32.0078 14.0039C28.5955 14.0039 5.22484 14.0039 1.99219 14.0039V12.0117H32.0078V14.0039Z" fill="#FF9846"/>
</svg>
