<svg width="34" height="34" viewBox="0 0 34 34" fill="none" xmlns="http://www.w3.org/2000/svg">
<path d="M17.0004 0.0163874C10.0372 0.0163874 3.42502 -0.60254 0.899405 5.87416C-0.143824 8.54915 0.00767449 12.0232 0.00767449 16.9976C0.00767449 21.3627 -0.132318 25.4652 0.899405 28.1191C3.41926 34.5997 10.0852 33.9788 16.9966 33.9788C23.6644 33.9788 30.5394 34.6725 33.0957 28.1191C34.1408 25.4173 33.9874 21.995 33.9874 16.9976C33.9874 10.3638 34.3537 6.08111 31.1339 2.86575C27.8738 -0.39176 23.465 0.0163874 16.9928 0.0163874H17.0004ZM15.4778 3.07653C30.0024 3.05354 31.8511 1.44011 30.8309 23.8537C30.4684 31.781 24.4277 30.911 17.0023 30.911C3.46337 30.911 3.07408 30.5239 3.07408 16.9899C3.07408 3.29881 4.14799 3.0842 15.4778 3.0727V3.07653ZM26.0711 5.89524C24.9455 5.89524 24.0326 6.80734 24.0326 7.93214C24.0326 9.05694 24.9455 9.96905 26.0711 9.96905C27.1968 9.96905 28.1097 9.05694 28.1097 7.93214C28.1097 6.80734 27.1968 5.89524 26.0711 5.89524V5.89524ZM17.0004 8.27705C12.1812 8.27705 8.27488 12.1822 8.27488 16.9976C8.27488 21.813 12.1812 25.7162 17.0004 25.7162C21.8196 25.7162 25.724 21.813 25.724 16.9976C25.724 12.1822 21.8196 8.27705 17.0004 8.27705V8.27705ZM17.0004 11.3372C24.489 11.3372 24.4986 22.658 17.0004 22.658C9.51372 22.658 9.50221 11.3372 17.0004 11.3372Z" fill="white"/>
</svg>
